# xmcd
#
# Track frame offsets: 
#        150
#        9605
#        29437
#        47435
#        66495
#        86681
#        102259
#        115104
#        137387
#        173251
#        186726
#        207578
#        229275
#        244043
#
# Disc length: 3562 seconds
#
# Revision: 6
# Processed by: cddbd v1.5.2PL0 Copyright (c) Steve Scherf et al.
# Submitted via: ExactAudioCopy v0.99pb3
#
DISCID=be0de80e
DTITLE=Skyedance - Way Out To Hope Street
DYEAR=1997
DGENRE=Celtic
TTITLE0=Way Out To Hope Street
TTITLE1=Walking The Plank
TTITLE2=Donostia
TTITLE3=Year's Turning
TTITLE4=Midnight on Raasay, The Braemar Cappuccino
TTITLE5=Dizzy
TTITLE6=Stoney Run
TTITLE7=The Lupine
TTITLE8=Dark Jewel
TTITLE9=Tathaich Nam Fonn
TTITLE10=The Skyedance Reels
TTITLE11=Skerray
TTITLE12=Reel De Flores
TTITLE13=Bannockburn
EXTD=YEAR: 1997
EXTT0=
EXTT1=
EXTT2=
EXTT3=
EXTT4=
EXTT5=
EXTT6=
EXTT7=
EXTT8=
EXTT9=
EXTT10=
EXTT11=
EXTT12=
EXTT13=
PLAYORDER=
